<?xml version="1.0" encoding="utf-8"?>
<svg xmlns="http://www.w3.org/2000/svg" fill="none" height="187" viewBox="0 0 1000 187" width="1000">
<g clip-path="url(#clip0_1_4)">
<path clip-rule="evenodd" d="M787.375 122.228C784.239 117.184 779.875 113.186 774.257 110.154C782.41 103.908 786.487 95.5197 786.487 84.9881C786.487 74.4566 783.011 65.4146 776.034 58.6984C769.082 51.9822 758.708 48.6111 744.883 48.6111H706.86C695.57 48.6111 686.424 57.7576 686.424 69.047V177.446H749.587C763.594 177.446 774.178 174.023 781.339 167.124C788.473 160.225 792.053 151.444 792.053 140.782C792.053 133.439 790.511 127.271 787.375 122.228ZM744.726 148.151H720.606L720.658 125.102V100.093L720.606 77.9584H739.5C743.237 77.9584 746.007 78.9776 747.888 81.0159C749.718 83.0804 750.659 85.8244 750.659 89.3001C750.659 92.5667 749.587 95.1538 747.523 97.1399C745.406 99.126 742.74 100.093 739.5 100.093H725.283V125.102H744.753C752.41 125.938 756.251 129.675 756.251 136.261C755.65 144.179 751.808 148.151 744.753 148.151H744.726ZM835.672 99.9364V124.972H879.288V99.9364H835.672ZM890.787 48.7158H890.757L890.761 48.6897L890.787 48.7158ZM890.757 48.7158H817.144C805.881 48.7158 796.734 57.8362 796.708 69.0995V79.4743L796.682 177.577H887.206V146.819H831.047V124.841V99.8057V79.4743H887.18L890.757 48.7158ZM895.441 48.7156H999.868L999.999 79.5002H964.719V177.577H930.537V79.5002H891.86L895.441 48.7156Z" fill="#EEDD00" fill-rule="evenodd"/>
<path d="M661.127 157.066V177.476H681.563V157.066H661.127Z" fill="#EEDD00"/>
<path clip-rule="evenodd" d="M544.644 48.6114H544.647V48.5852L544.644 48.6114ZM544.644 48.6114H454.123L450.542 79.3437V177.473H541.067V146.714H484.907V124.737V99.7013V79.3698H541.067L544.644 48.6114ZM532.914 99.7274V124.763H489.507V99.7274H532.914ZM0 48.6114V79.396H38.729V177.473H72.9109V79.396H108.034L111.614 48.6114H0ZM195.635 127.454C201.646 124.214 206.35 119.588 209.747 113.604C213.196 107.62 214.895 100.459 214.895 92.1751C214.895 79.1086 210.792 68.5771 202.639 60.6065C194.459 52.6098 184.215 48.6376 171.854 48.6376H116.243L112.663 79.3961V177.473H147.028V79.3961H166.811C174.99 79.762 179.067 84.0216 179.067 92.1751C179.067 96.3825 177.943 99.5446 175.722 101.714C173.501 103.883 170.548 104.954 166.811 104.954H151.653V133.935H162.682L189.311 177.499H227.099L195.609 127.481L195.635 127.454ZM445.892 79.3702L445.889 79.3963L445.915 79.3702H445.892ZM449.469 48.6117L445.892 79.3702H390.304V102.759V132.289V177.447H355.913V69.0476C355.913 57.7582 365.06 48.6117 376.349 48.6117H449.469ZM394.878 132.315V102.785H436.795L433.215 132.315H394.878ZM584.944 142.664C581.599 139.241 579.901 134.824 579.901 129.415V48.6117H549.273L545.693 79.3702V133.021C545.693 143.945 548.044 152.804 552.696 159.65C557.374 166.497 563.907 171.515 572.244 174.755C579.953 177.761 588.812 179.381 598.742 179.59V147.708C592.523 147.368 587.923 145.695 584.918 142.638L584.944 142.664ZM622.027 48.6117V129.415C622.027 134.824 620.433 139.214 617.166 142.664C614.239 145.748 609.64 147.42 603.316 147.734V179.642C613.351 179.433 622.21 177.813 629.945 174.781C638.229 171.541 644.71 166.497 649.388 159.677C654.066 152.83 656.392 143.945 656.392 133.047V48.6117H622.027Z" fill="white" fill-rule="evenodd"/>
<path d="M288.672 12.5725L301.53 12.4418C301.53 12.4418 301.765 12.5464 301.765 12.677C301.765 12.7554 301.739 12.8338 301.66 12.86L291.181 20.3078C291.181 20.3078 291.05 20.4646 291.103 20.5692L295.206 32.7471C295.206 32.7471 295.206 33.0085 295.075 33.0346C294.997 33.0346 294.918 33.0346 294.866 33.0085L284.543 25.3515C284.543 25.3515 284.36 25.2992 284.256 25.3515L273.933 33.0085C273.933 33.0085 273.698 33.0607 273.62 32.9562C273.568 32.9039 273.568 32.8255 273.594 32.7471L277.697 20.5692C277.697 20.5692 277.697 20.3601 277.618 20.3078L267.139 12.86C267.139 12.86 267.008 12.6509 267.087 12.5464C267.139 12.4941 267.191 12.4418 267.27 12.4418L280.127 12.5725C280.127 12.5725 280.31 12.4941 280.362 12.4157L284.151 0.159353C284.151 0.159353 284.334 -0.0235777 284.439 0.00255522C284.517 0.00255522 284.57 0.080954 284.596 0.159353L288.437 12.4157C288.437 12.4157 288.568 12.5725 288.672 12.5725Z" fill="#FFEE00"/>
<path d="M252.341 79.8139C249.362 73.7249 245.494 68.028 241.81 62.2264C244.475 59.979 247.297 57.9668 250.329 56.1897C250.564 64.108 251.322 72.0002 252.55 79.7355C252.602 80.1798 252.55 80.2059 252.341 79.7878V79.8139Z" fill="#FFEE00"/>
<path d="M315.192 54.3861C312.187 65.8062 308.397 76.965 303.902 87.8886C296.402 106.182 286.08 124.37 271.262 137.724C270.975 137.985 270.74 138.351 270.609 138.717C269.564 141.931 268.571 145.12 267.525 148.36C267.238 149.353 267.029 150.163 266.977 150.817C266.715 153.064 266.846 155.468 266.846 157.742C266.846 159.806 266.715 161.217 266.454 162.028C265.801 164.04 264.389 165.399 262.194 166.13C261.097 166.496 259.921 166.209 258.954 166.784C257.882 167.411 257.386 168.404 257.438 169.789C257.438 169.867 257.386 169.946 257.281 169.972C255.635 170.233 254.668 171.174 254.485 172.768C232.769 161.845 217.847 139.318 217.847 113.342C217.847 94.657 225.556 77.8013 237.943 65.7278C239.824 68.0798 242.203 70.3795 243.771 72.2611C249.598 79.2908 253.649 87.4443 255.896 96.7215C257.647 103.908 259.79 110.964 262.351 117.889L262.403 117.941C262.403 117.941 262.56 117.967 262.612 117.915C262.665 117.837 262.769 117.706 262.821 117.549C274.529 95.9375 279.808 71.4771 278.998 47.0428C280.775 46.8599 282.578 46.8076 284.407 46.8076C286.602 46.8076 288.745 46.9383 290.888 47.1212C289.582 56.3723 287.752 65.5449 285.426 74.613C281.115 91.2858 274.451 107.75 264.285 121.731C264.076 121.992 264.05 122.279 264.154 122.593C265.984 127.14 267.97 131.635 270.165 136.051H270.191C270.191 136.051 270.374 136.13 270.426 136.051C290.13 111.382 301.446 81.1201 304.138 49.8129C307.979 50.9889 311.664 52.5307 315.192 54.3861Z" fill="#FFEE00"/>
<path d="M316.241 79.396C317.417 71.6868 318.175 63.9514 318.332 56.1638C321.337 57.9408 324.212 59.9531 326.903 62.2005C323.375 67.9236 319.429 73.4115 316.529 79.5005C316.241 80.18 316.111 80.1277 316.241 79.4221V79.396Z" fill="#FFEE00"/>
<path d="M350.922 113.342C350.922 139.371 335.974 161.897 314.179 172.795C314.022 171.253 313.343 170.286 311.566 170.051C311.487 170.025 311.383 169.972 311.357 169.868C311.304 169.659 311.278 169.397 311.226 169.11C311.095 167.934 310.573 167.098 309.58 166.653C308.717 166.261 307.541 166.418 306.731 166.209C304.536 165.582 303.072 164.275 302.288 162.237C302.027 161.531 301.896 160.512 301.87 159.232C301.87 157.063 301.844 154.946 301.844 152.777C301.844 151.287 301.766 150.294 301.609 149.772C300.328 145.799 299.1 141.879 297.846 138.012C297.794 137.803 297.794 137.541 297.898 137.332C303.569 126.095 308.064 114.361 311.383 102.131C312.245 98.9952 313.317 94.3697 314.362 91.1553C317.132 82.9496 321.496 75.6585 327.428 69.4127C329.101 67.6357 330.225 66.4075 330.773 65.7019C343.16 77.8014 350.87 94.6572 350.87 113.342H350.922Z" fill="#FFEE00"/>
<path d="M249.391 43.5928C249.443 43.8802 249.365 43.9064 249.182 43.6712C247.196 41.1363 239.852 32.1466 236.795 38.2617C233.11 45.6311 237.03 54.4902 241.107 61.0496C241.342 61.4416 241.577 61.8074 241.812 62.1994C240.48 63.297 239.173 64.473 237.945 65.7274C237.344 64.9956 236.821 64.2378 236.351 63.5061C234.155 59.9259 232.483 55.8753 231.255 51.3804C229.896 46.1799 228.406 33.8191 235.175 31.2319C237.605 30.2911 240.767 31.1012 242.91 32.4601C246.516 34.7337 248.816 39.4376 249.365 43.5666L249.391 43.5928Z" fill="#FFEE00"/>
<path d="M278.972 47.0428C268.571 47.879 258.85 51.0934 250.331 56.1632C250.2 51.616 250.278 47.0689 250.54 42.5741C250.566 42.1037 250.827 41.8423 251.271 41.6333C254.146 40.4311 257.36 39.5165 260.914 38.8893C266.638 37.8963 272.413 37.3213 278.214 37.2168C278.293 37.2168 278.371 37.2429 278.371 37.3736C278.685 40.5879 278.894 43.8284 278.998 47.0689L278.972 47.0428Z" fill="#FFEE00"/>
<path d="M314.175 172.797C314.228 173.085 314.228 173.425 314.228 173.738V186.543C314.228 186.543 314.175 186.726 314.071 186.726H254.697C254.54 186.726 254.436 186.595 254.436 186.439V173.581C254.436 173.294 254.462 173.033 254.488 172.771C263.478 177.318 273.643 179.853 284.358 179.853C295.072 179.853 305.186 177.318 314.149 172.797H314.175Z" fill="#FFEE00"/>
<path d="M318.28 43.881C318.437 47.9839 318.463 52.0606 318.332 56.1373C317.287 55.484 316.241 54.9091 315.17 54.3603C316.032 51.2505 316.79 48.0884 317.522 44.9263C317.6 44.6127 317.757 44.1946 317.888 43.8287C318.097 43.0186 318.254 43.0709 318.28 43.8548V43.881Z" fill="#FFEE00"/>
<path d="M338.533 44.9516C337.88 52.3472 335.293 59.6906 330.824 65.675C329.596 64.4729 328.289 63.3231 326.93 62.1993C328.133 60.2132 329.282 58.2271 330.328 56.1626C332 52.8176 333.437 48.7409 333.437 45.0823C333.437 42.5213 332.627 35.596 328.524 36.2493C325.206 36.772 321.39 41.2146 319.561 43.7495C319.378 43.9847 319.3 43.9586 319.352 43.6711C320.11 37.7389 324.186 31.1273 330.929 30.866C338.22 30.6046 339.004 39.908 338.533 44.9516Z" fill="#FFEE00"/>
<path d="M304.742 38.5497C304.742 39.6734 304.716 40.8233 304.663 41.9993C304.533 44.6126 304.402 47.1997 304.141 49.813C299.881 48.4802 295.465 47.5917 290.865 47.1475C291.336 43.9331 291.754 40.6665 292.067 37.426C292.093 37.2953 292.146 37.2431 292.276 37.2692C296.379 37.426 300.482 37.7657 304.559 38.3407C304.637 38.3668 304.742 38.4713 304.742 38.5497Z" fill="#FFEE00"/>
</g>
<defs>
<clipPath id="clip0_1_4">
<rect fill="white" height="187" width="1000"/>
</clipPath>
</defs>
</svg>